# xmcd CD database file
#
# Track frame offsets:
#	150
#	23850
#	44252
#	69582
#	94750
#	114800
#	136737
#	158115
#	178822
#	204935
#
# Disc length: 3065 seconds
#
# Revision: 2
# Processed by: cddbd v1.5.2PL0 Copyright (c) Steve Scherf et al.
# Submitted via: CDex 1.81
#
DISCID=7b0bf70a
DTITLE=Tropical Jazz Big Band - 13-Fantasy
DYEAR=2009
DGENRE=Jazz
TTITLE0=In The Stone - Fantasy
TTITLE1=Theme From S.W.A.T.
TTITLE2=Walk Don't Run
TTITLE3=Sunny
TTITLE4=Rhythm Is Gonna Get You
TTITLE5=Charade
TTITLE6=Hi Jack!
TTITLE7=Elektric City
TTITLE8=Self Portrait
TTITLE9=Sunny (Instrument)
EXTD=YEAR: 2009
EXTT0=
EXTT1=
EXTT2=
EXTT3=
EXTT4=
EXTT5=
EXTT6=
EXTT7=
EXTT8=
EXTT9=
PLAYORDER=
